<?xml version="1.0" encoding="utf-8"?>
<svg xmlns="http://www.w3.org/2000/svg" fill="none" height="226" viewBox="0 0 302 226" width="302">
<path d="M12 173H290V217H12V173Z" fill="#BDD2ED"/>
<path d="M12 173H290V217H12V173Z" fill="url(#paint0_linear_418_2459)"/>
<path d="M206 9H290V163H206V9Z" fill="#BDD2ED"/>
<path d="M206 9H290V163H206V9Z" fill="url(#paint1_linear_418_2459)"/>
<path d="M109 9.31152H193V163.312H109V9.31152Z" fill="#BDD2ED"/>
<path d="M109 9.31152H193V163.312H109V9.31152Z" fill="url(#paint2_linear_418_2459)"/>
<path d="M12 9H96V163H12V9Z" fill="#BDD2ED"/>
<path d="M12 9H96V163H12V9Z" fill="url(#paint3_linear_418_2459)"/>
<path d="M1 1H301V225H1V1Z" stroke="black" stroke-miterlimit="3.8637" stroke-width="2"/>
<path d="M11.968 163.34H95.968V9.33997H11.968V163.34Z" stroke="black" stroke-miterlimit="3.8637" stroke-width="2"/>
<path d="M11.75 172.66H289.75V216.66H11.75V172.66Z" stroke="black" stroke-miterlimit="3.8637" stroke-width="2"/>
<path d="M109 163.34H193V9.33997H109V163.34Z" stroke="black" stroke-miterlimit="3.8637" stroke-width="2"/>
<path d="M206.032 163.34H290.032V9.33997H206.032V163.34Z" stroke="black" stroke-miterlimit="3.8637" stroke-width="2"/>
<defs>
<linearGradient gradientUnits="userSpaceOnUse" id="paint0_linear_418_2459" x1="151" x2="151" y1="191.144" y2="217">
<stop stop-color="white"/>
<stop offset="1" stop-color="white" stop-opacity="0"/>
</linearGradient>
<linearGradient gradientUnits="userSpaceOnUse" id="paint1_linear_418_2459" x1="248" x2="248" y1="72.5052" y2="163">
<stop stop-color="white"/>
<stop offset="1" stop-color="white" stop-opacity="0"/>
</linearGradient>
<linearGradient gradientUnits="userSpaceOnUse" id="paint2_linear_418_2459" x1="151" x2="151" y1="72.8167" y2="163.312">
<stop stop-color="white"/>
<stop offset="1" stop-color="white" stop-opacity="0"/>
</linearGradient>
<linearGradient gradientUnits="userSpaceOnUse" id="paint3_linear_418_2459" x1="54" x2="54" y1="72.5052" y2="163">
<stop stop-color="white"/>
<stop offset="1" stop-color="white" stop-opacity="0"/>
</linearGradient>
</defs>
</svg>