<?xml version="1.0" encoding="UTF-8"?>
<svg width="200" height="150" viewBox="0 0 200 150" xmlns="http://www.w3.org/2000/svg">
  <!-- Window frame -->
  <rect x="10" y="10" width="180" height="130" fill="white" stroke="black" stroke-width="2"/>
  <!-- Divider -->
  <line x1="100" y1="10" x2="100" y2="140" stroke="black" stroke-width="2"/>
  <!-- Left panel (tilt-turn) -->
  <rect x="15" y="15" width="80" height="120" fill="#e6f7ff" stroke="black" stroke-width="1"/>
  <!-- Right panel (tilt-turn) -->
  <rect x="105" y="15" width="80" height="120" fill="#e6f7ff" stroke="black" stroke-width="1"/>
  <!-- Left panel tilt lines -->
  <line x1="15" y1="15" x2="95" y2="35" stroke="black" stroke-width="1" stroke-dasharray="5,5"/>
  <line x1="15" y1="135" x2="95" y2="115" stroke="black" stroke-width="1" stroke-dasharray="5,5"/>
  <!-- Right panel tilt lines -->
  <line x1="105" y1="35" x2="185" y2="15" stroke="black" stroke-width="1" stroke-dasharray="5,5"/>
  <line x1="105" y1="115" x2="185" y2="135" stroke="black" stroke-width="1" stroke-dasharray="5,5"/>
  <!-- Left panel turn arrow -->
  <path d="M55 70 L35 70 L45 60 Z" fill="black"/>
  <line x1="55" y1="70" x2="35" y2="70" stroke="black" stroke-width="2"/>
  <!-- Right panel turn arrow -->
  <path d="M145 70 L165 70 L155 60 Z" fill="black"/>
  <line x1="145" y1="70" x2="165" y2="70" stroke="black" stroke-width="2"/>
  <!-- Handles -->
  <rect x="80" y="70" width="10" height="20" fill="black"/>
  <rect x="110" y="70" width="10" height="20" fill="black"/>
</svg>
