<?xml version="1.0" encoding="utf-8"?>
<svg xmlns="http://www.w3.org/2000/svg" fill="none" height="172" viewBox="0 0 302 172" width="302">
<path d="M11.3018 8.79883H95.3018V162.799H11.3018V8.79883Z" fill="#BDD2ED"/>
<path d="M11.3018 8.79883H95.3018V162.799H11.3018V8.79883Z" fill="url(#paint0_linear_414_1287)"/>
<path d="M109.302 8.79883H193.302V162.799H109.302V8.79883Z" fill="#BDD2ED"/>
<path d="M109.302 8.79883H193.302V162.799H109.302V8.79883Z" fill="url(#paint1_linear_414_1287)"/>
<path d="M205.302 8.79883H289.302V162.799H205.302V8.79883Z" fill="#BDD2ED"/>
<path d="M205.302 8.79883H289.302V162.799H205.302V8.79883Z" fill="url(#paint2_linear_414_1287)"/>
<path d="M1 1H301V171H1V1Z" stroke="black" stroke-miterlimit="3.8637" stroke-width="2"/>
<path d="M11.968 9H95.968V163H11.968V9Z" stroke="black" stroke-miterlimit="3.8637" stroke-width="2"/>
<path d="M109 9H193V163H109V9Z" stroke="black" stroke-miterlimit="3.8637" stroke-width="2"/>
<path d="M206.032 9H290.032V163H206.032V9Z" stroke="black" stroke-miterlimit="3.8637" stroke-width="2"/>
<defs>
<linearGradient gradientUnits="userSpaceOnUse" id="paint0_linear_414_1287" x1="53.3018" x2="53.3018" y1="72.304" y2="162.799">
<stop stop-color="white"/>
<stop offset="1" stop-color="white" stop-opacity="0"/>
</linearGradient>
<linearGradient gradientUnits="userSpaceOnUse" id="paint1_linear_414_1287" x1="151.302" x2="151.302" y1="72.304" y2="162.799">
<stop stop-color="white"/>
<stop offset="1" stop-color="white" stop-opacity="0"/>
</linearGradient>
<linearGradient gradientUnits="userSpaceOnUse" id="paint2_linear_414_1287" x1="247.302" x2="247.302" y1="72.304" y2="162.799">
<stop stop-color="white"/>
<stop offset="1" stop-color="white" stop-opacity="0"/>
</linearGradient>
</defs>
</svg>