<?xml version="1.0" encoding="utf-8"?>
<svg xmlns="http://www.w3.org/2000/svg" fill="none" height="226" viewBox="0 0 202 226" width="202">
<path d="M106.698 8.66968H190.698V52.6697H106.698V8.66968Z" fill="#BDD2ED"/>
<path d="M106.698 8.66968H190.698V52.6697H106.698V8.66968Z" fill="url(#paint0_linear_413_298)"/>
<path d="M10.6982 8.66968H94.6982V52.6697H10.6982V8.66968Z" fill="#BDD2ED"/>
<path d="M10.6982 8.66968H94.6982V52.6697H10.6982V8.66968Z" fill="url(#paint1_linear_413_298)"/>
<path d="M10.6982 62.6697H94.6982V216.67H10.6982V62.6697Z" fill="#BDD2ED"/>
<path d="M10.6982 62.6697H94.6982V216.67H10.6982V62.6697Z" fill="url(#paint2_linear_413_298)"/>
<path d="M106.698 62.6697H190.698V216.67H106.698V62.6697Z" fill="#BDD2ED"/>
<path d="M106.698 62.6697H190.698V216.67H106.698V62.6697Z" fill="url(#paint3_linear_413_298)"/>
<path d="M1 1H201V225H1V1Z" stroke="black" stroke-miterlimit="3.8637" stroke-width="2"/>
<path d="M11.092 62.66H95.092V216.66H11.092V62.66Z" stroke="black" stroke-miterlimit="3.8637" stroke-width="2"/>
<path d="M11.092 9.33997H95.092V53.34H11.092V9.33997Z" stroke="black" stroke-miterlimit="3.8637" stroke-width="2"/>
<path d="M106.908 62.66H190.908V216.66H106.908V62.66Z" stroke="black" stroke-miterlimit="3.8637" stroke-width="2"/>
<path d="M106.908 9.33997H190.908V53.34H106.908V9.33997Z" stroke="black" stroke-miterlimit="3.8637" stroke-width="2"/>
<defs>
<linearGradient gradientUnits="userSpaceOnUse" id="paint0_linear_413_298" x1="148.698" x2="148.698" y1="26.814" y2="52.6697">
<stop stop-color="white"/>
<stop offset="1" stop-color="white" stop-opacity="0"/>
</linearGradient>
<linearGradient gradientUnits="userSpaceOnUse" id="paint1_linear_413_298" x1="52.6982" x2="52.6982" y1="26.814" y2="52.6697">
<stop stop-color="white"/>
<stop offset="1" stop-color="white" stop-opacity="0"/>
</linearGradient>
<linearGradient gradientUnits="userSpaceOnUse" id="paint2_linear_413_298" x1="52.6982" x2="52.6982" y1="126.175" y2="216.67">
<stop stop-color="white"/>
<stop offset="1" stop-color="white" stop-opacity="0"/>
</linearGradient>
<linearGradient gradientUnits="userSpaceOnUse" id="paint3_linear_413_298" x1="148.698" x2="148.698" y1="126.175" y2="216.67">
<stop stop-color="white"/>
<stop offset="1" stop-color="white" stop-opacity="0"/>
</linearGradient>
</defs>
</svg>