<?xml version="1.0" encoding="utf-8"?>
<svg xmlns="http://www.w3.org/2000/svg" fill="none" height="226" viewBox="0 0 202 226" width="202">
<path d="M12 172H191V216H12V172Z" fill="#BDD2ED"/>
<path d="M12 172H191V216H12V172Z" fill="url(#paint0_linear_413_327)"/>
<path d="M106.758 9.99731H190.758V163.997H106.758V9.99731Z" fill="#BDD2ED"/>
<path d="M106.758 9.99731H190.758V163.997H106.758V9.99731Z" fill="url(#paint1_linear_413_327)"/>
<path d="M10.7578 9.99731H94.7578V163.997H10.7578V9.99731Z" fill="#BDD2ED"/>
<path d="M10.7578 9.99731H94.7578V163.997H10.7578V9.99731Z" fill="url(#paint2_linear_413_327)"/>
<path d="M1 1H201V225H1V1Z" stroke="black" stroke-miterlimit="3.8637" stroke-width="2"/>
<path d="M11.092 163.34H95.092V9.33997H11.092V163.34Z" stroke="black" stroke-miterlimit="3.8637" stroke-width="2"/>
<path d="M11 173H191V217H11V173Z" stroke="black" stroke-miterlimit="3.8637" stroke-width="2"/>
<path d="M106.908 163.34H190.908V9.33997H106.908V163.34Z" stroke="black" stroke-miterlimit="3.8637" stroke-width="2"/>
<defs>
<linearGradient gradientUnits="userSpaceOnUse" id="paint0_linear_413_327" x1="101.5" x2="101.5" y1="190.144" y2="216">
<stop stop-color="white"/>
<stop offset="1" stop-color="white" stop-opacity="0"/>
</linearGradient>
<linearGradient gradientUnits="userSpaceOnUse" id="paint1_linear_413_327" x1="148.758" x2="148.758" y1="73.5025" y2="163.997">
<stop stop-color="white"/>
<stop offset="1" stop-color="white" stop-opacity="0"/>
</linearGradient>
<linearGradient gradientUnits="userSpaceOnUse" id="paint2_linear_413_327" x1="52.7578" x2="52.7578" y1="73.5025" y2="163.997">
<stop stop-color="white"/>
<stop offset="1" stop-color="white" stop-opacity="0"/>
</linearGradient>
</defs>
</svg>