<?xml version="1.0" encoding="utf-8"?>
<svg xmlns="http://www.w3.org/2000/svg" fill="none" height="226" viewBox="0 0 202 226" width="202">
<path d="M107 173H191V217H107V173Z" fill="#BDD2ED"/>
<path d="M107 173H191V217H107V173Z" fill="url(#paint0_linear_413_336)"/>
<path d="M11 173H95V217H11V173Z" fill="#BDD2ED"/>
<path d="M11 173H95V217H11V173Z" fill="url(#paint1_linear_413_336)"/>
<path d="M11 9H95V163H11V9Z" fill="#BDD2ED"/>
<path d="M11 9H95V163H11V9Z" fill="url(#paint2_linear_413_336)"/>
<path d="M107 9H191V163H107V9Z" fill="#BDD2ED"/>
<path d="M107 9H191V163H107V9Z" fill="url(#paint3_linear_413_336)"/>
<path d="M1 1H201V225H1V1Z" stroke="black" stroke-miterlimit="3.8637" stroke-width="2"/>
<path d="M11.092 163.34H95.092V9.33997H11.092V163.34Z" stroke="black" stroke-miterlimit="3.8637" stroke-width="2"/>
<path d="M11.092 172.66H95.092V216.66H11.092V172.66Z" stroke="black" stroke-miterlimit="3.8637" stroke-width="2"/>
<path d="M106.908 163.34H190.908V9.33997H106.908V163.34Z" stroke="black" stroke-miterlimit="3.8637" stroke-width="2"/>
<path d="M106.908 172.66H190.908V216.66H106.908V172.66Z" stroke="black" stroke-miterlimit="3.8637" stroke-width="2"/>
<defs>
<linearGradient gradientUnits="userSpaceOnUse" id="paint0_linear_413_336" x1="149" x2="149" y1="191.144" y2="217">
<stop stop-color="white"/>
<stop offset="1" stop-color="white" stop-opacity="0"/>
</linearGradient>
<linearGradient gradientUnits="userSpaceOnUse" id="paint1_linear_413_336" x1="53" x2="53" y1="191.144" y2="217">
<stop stop-color="white"/>
<stop offset="1" stop-color="white" stop-opacity="0"/>
</linearGradient>
<linearGradient gradientUnits="userSpaceOnUse" id="paint2_linear_413_336" x1="53" x2="53" y1="72.5052" y2="163">
<stop stop-color="white"/>
<stop offset="1" stop-color="white" stop-opacity="0"/>
</linearGradient>
<linearGradient gradientUnits="userSpaceOnUse" id="paint3_linear_413_336" x1="149" x2="149" y1="72.5052" y2="163">
<stop stop-color="white"/>
<stop offset="1" stop-color="white" stop-opacity="0"/>
</linearGradient>
</defs>
</svg>